<?xml version="1.0" encoding="UTF-8" standalone="no"?>
<!-- Created with Inkscape (http://www.inkscape.org/) -->

<svg
   xmlns:dc="http://purl.org/dc/elements/1.1/"
   xmlns:cc="http://creativecommons.org/ns#"
   xmlns:rdf="http://www.w3.org/1999/02/22-rdf-syntax-ns#"
   xmlns:svg="http://www.w3.org/2000/svg"
   xmlns="http://www.w3.org/2000/svg"
   xmlns:sodipodi="http://sodipodi.sourceforge.net/DTD/sodipodi-0.dtd"
   xmlns:inkscape="http://www.inkscape.org/namespaces/inkscape"
   width="256"
   height="256"
   viewBox="0 0 67.733332 67.733335"
   version="1.1"
   id="svg8"
   inkscape:version="0.92.3 (2405546, 2018-03-11)"
   sodipodi:docname="favicon.svg">
  <defs
     id="defs2" />
  <sodipodi:namedview
     id="base"
     pagecolor="#ffffff"
     bordercolor="#666666"
     borderopacity="1.0"
     inkscape:pageopacity="0.0"
     inkscape:pageshadow="2"
     inkscape:zoom="1.979899"
     inkscape:cx="102.9014"
     inkscape:cy="134.94555"
     inkscape:document-units="mm"
     inkscape:current-layer="layer1"
     showgrid="false"
     inkscape:window-width="1920"
     inkscape:window-height="1016"
     inkscape:window-x="0"
     inkscape:window-y="27"
     inkscape:window-maximized="1"
     units="px" />
  <metadata
     id="metadata5">
    <rdf:RDF>
      <cc:Work
         rdf:about="">
        <dc:format>image/svg+xml</dc:format>
        <dc:type
           rdf:resource="http://purl.org/dc/dcmitype/StillImage" />
        <dc:title></dc:title>
      </cc:Work>
    </rdf:RDF>
  </metadata>
  <g
     inkscape:label="Layer 1"
     inkscape:groupmode="layer"
     id="layer1"
     transform="translate(0,-229.26665)">
    <rect
       style="fill:#00ffff;fill-opacity:1;stroke-width:0.26458332"
       id="rect29"
       width="68.153732"
       height="67.886444"
       x="0"
       y="229.24716"
       ry="17.85136"
       inkscape:export-filename="/home/john/Documents/coding/projects/tensorflow_dcgan/public/favicon.png"
       inkscape:export-xdpi="95.409325"
       inkscape:export-ydpi="95.409325" />
    <path
       sodipodi:type="spiral"
       style="fill:none;fill-rule:evenodd;stroke:#000000;stroke-width:0.26458332"
       id="path73"
       sodipodi:cx="32.473248"
       sodipodi:cy="261.18585"
       sodipodi:expansion="1"
       sodipodi:revolution="3"
       sodipodi:radius="25.658222"
       sodipodi:argument="-17.927469"
       sodipodi:t0="0"
       d="m 32.473248,261.18585 c 0.777227,1.02514 -0.998406,1.55345 -1.703843,1.29181 -1.911691,-0.70906 -1.881278,-3.27843 -0.879764,-4.69949 1.791474,-2.54194 5.510196,-2.3571 7.695135,-0.46773 3.206486,2.77274 2.851725,7.77394 0.05568,10.69078 -3.726683,3.8877 -10.049249,3.35465 -13.686427,-0.35635 -4.577017,-4.66992 -3.86191,-12.33013 0.768396,-16.68208 5.607921,-5.27078 14.614163,-4.3717 19.677719,1.18044 5.967224,6.54301 4.883088,16.90016 -1.592475,22.67336 -7.476294,6.6654 -19.187467,5.39554 -25.669011,-2.00451 -7.3647429,-8.4084 -5.908716,-21.47569 2.416554,-28.66466 9.339695,-8.06493 23.764593,-6.42243 31.660303,2.8286 8.765735,10.2704 6.936561,26.05399 -3.240634,34.65595"
       inkscape:export-filename="/home/john/Documents/coding/projects/tensorflow_dcgan/public/favicon.png"
       inkscape:export-xdpi="95.409325"
       inkscape:export-ydpi="95.409325" />
  </g>
</svg>
